# xmcd
# Track frame offsets:
# 150
# 17483
# 33277
# 48335
# 64710
# 80271
# 99054
# 116065
# 135195
# 150093
# 162816
#
# Disc length: 2385 seconds
# Revision: 0
# Processed by: cddbd v1.4PL0 Copyright (c) Steve Scherf et al.
# Submitted via: VisiTrax 2.9.5.181 - For more info visit www.synapsa.com
#
DISCID=6a094f0b
DTITLE=Moss, Martin and Chrissie Hammonds - Sedona
DYEAR=1900
DGENRE=
TTITLE0=Sedona
TTITLE1=The Old Mission Hall
TTITLE2=A Fool Like Me
TTITLE3=Jenny Lake
TTITLE4=Wishing I Was Home
TTITLE5=Goodbye Georgia
TTITLE6=The Cowboy Gathering
TTITLE7=Albuquerque
TTITLE8=I Knew It Was You
TTITLE9=She Wouldn't Change a Thing
TTITLE10=Calling Me Back
EXTD=
EXTT0=
EXTT1=
EXTT2=
EXTT3=
EXTT4=
EXTT5=
EXTT6=
EXTT7=
EXTT8=
EXTT9=
EXTT10=
PLAYORDER=
